<?xml version="1.0" encoding="UTF-8" standalone="no"?>
<!-- Created with Inkscape (http://www.inkscape.org/) -->
<svg
   xmlns:svg="http://www.w3.org/2000/svg"
   xmlns="http://www.w3.org/2000/svg"
   id="svg2"
   height="1052.3622"
   width="744.09448"
   y="0.0000000"
   x="0.0000000"
   version="1.0">
  <defs
     id="defs3" />
  <g
     id="layer1">
    <g
       id="g3612"
       transform="matrix(1.044961,0.000000,0.000000,1.044961,-26.21826,-18.36031)">
      <path
         id="text1325"
         style="font-size:1305.9757;font-style:normal;font-variant:normal;font-weight:normal;font-stretch:normal;fill:#000000;fill-opacity:1.0000000;stroke:none;stroke-width:1.0000000px;stroke-linecap:butt;stroke-linejoin:miter;stroke-opacity:1.0000000;font-family:Times New Roman;text-anchor:start;writing-mode:lr-tb"
         d="M 692.68041,749.35778 L 717.93709,749.35778 C 717.93639,810.41016 705.77580,854.84690 681.45519,882.66813 C 657.60099,910.48947 627.66713,924.07397 591.65353,924.07406 L 46.509502,924.07406 L 332.07060,381.88487 C 314.23453,322.38554 304.72505,300.18736 286.14167,268.88911 C 263.69102,235.65884 235.86188,219.04336 202.65419,219.04262 C 175.99416,219.04336 152.60834,227.54430 132.49664,244.54547 C 112.85243,261.16167 101.86109,287.05090 99.522584,322.21325 L 74.265864,322.21325 C 75.668964,265.41214 89.466604,220.00938 115.65882,186.00484 C 141.85087,151.61543 174.59102,134.42034 213.87940,134.41952 C 239.13590,134.42034 262.98944,143.11449 285.44010,160.50198 C 308.35795,177.50466 328.00204,206.87156 344.37244,248.60275 C 361.20992,289.94895 375.56791,335.32343 410.64705,465.92836 L 460.45892,649.66481 C 480.57028,725.78715 501.61753,776.79281 523.60071,802.68192 C 546.05060,828.18485 572.71043,840.93628 603.58032,840.93619 C 655.96398,840.93628 685.66397,810.41016 692.68041,749.35778" />
      <path
         id="path2852"
         style="fill:#ffffff;fill-opacity:1.0000000;fill-rule:evenodd;stroke:none;stroke-width:1.0000000px;stroke-linecap:butt;stroke-linejoin:miter;stroke-opacity:1.0000000"
         d="M 349.51279,460.41279 L 202.03051,727.09306 C 237.21749,737.19459 243.11005,672.54482 271.22596,682.64635 C 299.34187,692.74788 278.97046,745.27580 316.17774,743.25550 C 353.38503,741.23519 349.17606,665.47375 375.27167,674.56512 C 401.36727,683.65649 391.09739,739.21489 430.32498,727.09306 L 349.51279,460.41279 z " />
    </g>
  </g>
</svg>
